# xmcd CD database file
# Copyright (C) 1995 Ti Kan
#
# Track frame offsets:
#	182
#	15280
#	24840
#	34557
#	44440
#	54815
#	68147
#	78307
#	91895
#	103170
#	114815
#	127147
#	139270
#	153480
#	163375
#	174225
#
# Disc length: 2428 seconds
#
# Revision: 2
# Processed by: cddbd v1.4b41PL1 Copyright (c) Steve Scherf et al.
# Submitted via: NotifyCDPlayer(CDDB) 1.05
#
DISCID=c0097a10
DTITLE=Various Artist - The Big Truck Hits
DYEAR=1900
DGENRE=
TTITLE0=There Ain't No Easy Run - John Laws
TTITLE1=My Homecoming Trucker's Coming Home - Gay Kahler
TTITLE2=Keep on Truckin' - Nev Nicholls And His Country Playboys
TTITLE3=The Mighty Moonbi Range - Buddy Williams
TTITLE4=Bullshippers - John McSweeney
TTITLE5=Six Days On The Road - Lucky Starr
TTITLE6=Old 31 One More Time - John Laws
TTITLE7=Hittin' The Road Again - Buddy Williams
TTITLE8='57 Chevy Pick Up - John Laws
TTITLE9=Highway 31 - Johnny Ashcroft
TTITLE10=Last Time I Saw Him - Brenda Kristan
TTITLE11=That's Just My Truckin' Luck - Nev Nicholls And His Country
TTITLE12=My Diesel Friend - John McSweeney
TTITLE13=Truck Drivin' Son Of A Gun - Lucky Starr
TTITLE14=Hot Rod Guitar - Nev Nicholls And His Country Playboys
TTITLE15=Nashville Express - Nev Nicholls And His Country Playboys
EXTD=
EXTT0=
EXTT1=
EXTT2=
EXTT3=
EXTT4=
EXTT5=
EXTT6=
EXTT7=
EXTT8=
EXTT9=
EXTT10=
EXTT11=
EXTT12=
EXTT13=
EXTT14=
EXTT15=
PLAYORDER=
